<svg xmlns="http://www.w3.org/2000/svg" viewBox="0 0 50 50">
	<g class="border">
		<polygon points="35.29 0 35.29 1.96 48.04 1.96 48.04 14.71 50 14.71 50 0 35.29 0"/>
		<polygon points="48.04 48.04 35.29 48.04 35.29 50 50 50 50 35.29 48.04 35.29 48.04 48.04"/>
		<polygon points="1.96 35.29 0 35.29 0 50 14.71 50 14.71 48.04 1.96 48.04 1.96 35.29"/>
		<polygon points="1.96 1.96 14.71 1.96 14.71 0 0 0 0 14.71 1.96 14.71 1.96 1.96"/>
	</g>
	<g class="letters">
		<polygon points="9.41 41.02 21.89 41.02 21.89 38.95 11.48 38.95 11.48 24.92 19.8 24.92 19.8 22.85 11.48 22.85 11.48 11.05 21.89 11.05 21.89 8.98 9.41 8.98 9.41 41.02"/>
		<path d="M41.52,41.07l-7.13-16h.15a5.57,5.57,0,0,0,2-.41,5.44,5.44,0,0,0,1.78-1.14,5.73,5.73,0,0,0,1.29-1.76,5.19,5.19,0,0,0,.5-2.28V14.16A4.89,4.89,0,0,0,39.66,12a5.56,5.56,0,0,0-1.23-1.64,5.4,5.4,0,0,0-1.68-1,5.09,5.09,0,0,0-1.89-.37L30.52,9,28.67,9H27.61V41.07h2.07v-16h2.38l7,16ZM36.81,22.14a3.87,3.87,0,0,1-1.17.64A3.32,3.32,0,0,1,34.5,23H29.68V11.05H32q1.35,0,2.91,0a3.37,3.37,0,0,1,2.2.84,2.85,2.85,0,0,1,1,2.32v5.32a3.31,3.31,0,0,1-.36,1.57A3.55,3.55,0,0,1,36.81,22.14Z"/>
	</g>
</svg>