<svg id="src" xmlns="http://www.w3.org/2000/svg" viewBox="0 0 500 500"><defs><style>.cls-1{fill:#ef7843;}.cls-2{fill:#fab94a;}.cls-3{fill:#e8413a;}.cls-4{fill:#a41d16;}.cls-5{fill:#fdd186;}.cls-6{fill:#db2318;}</style></defs><path class="cls-6" d="m300.39,93.43c-1.89,0-3.78-.18-5.63-.57l-31.48,126.38h65.47v-70.29c11.34-15.64,7.86-37.52-7.78-48.86-5.97-4.33-13.16-6.66-20.54-6.66h-.04Z"/><path class="cls-3" d="m294.76,92.87c-4.35-.9-8.37-2.98-11.61-6.02-18.61-17.56-47.68-17.56-66.29,0-4.69,4.33-10.86,6.69-17.24,6.59-19.32,0-34.99,15.66-34.99,34.98,0,7.38,2.33,14.57,6.66,20.54v59.6l78.72,48.8,59.06-110.05c11.12-20.61,2.66-48.37-14.31-54.43Z"/><path class="cls-4" d="m293.87,182.7c.03-24.23-19.59-43.9-43.82-43.93-24.23-.03-43.9,19.59-43.93,43.82-.01,9.33,2.95,18.42,8.46,25.96v24.4l35.41,24.4,35.41-48.79c5.5-7.5,8.46-16.55,8.46-25.85Z"/><path class="cls-6" d="m109.71,158.77c-.58,1.8-1.36,3.53-2.3,5.17l100.28,65.69,6.87-21.25-43.31-59.42c-11.38-15.61-33.27-19.04-48.88-7.65-5.95,4.34-10.39,10.45-12.66,17.46Z"/><path class="cls-3" d="m107.4,163.93c-2.2,3.87-5.42,7.05-9.31,9.21-22.46,12.25-31.44,39.92-20.47,63.03,2.65,5.81,2.98,12.41.92,18.45-5.94,18.41,4.16,38.14,22.57,44.09,6.96,2.25,14.45,2.26,21.41.03l56.66,18.52,70.82-59.91-86.54-90.22c-16.15-16.93-45.04-17.46-56.05-3.19Z"/><path class="cls-4" d="m192.56,192.55c-23.04-7.51-47.8,5.08-55.31,28.12-7.51,23.04,5.08,47.8,28.12,55.31,8.84,2.88,18.36,2.88,27.19,0l23.19,7.54,34.24-26.17-35.41-48.8c-5.44-7.54-13.14-13.15-21.99-16.01h-.04Z"/><path class="cls-6" d="m112.89,360.32c1.54,1.11,2.95,2.38,4.21,3.79l93.48-75.18-17.95-12.96-70.11,22.77c-18.36,6.02-28.37,25.78-22.35,44.14,2.3,7.01,6.75,13.11,12.72,17.44Z"/><path class="cls-3" d="m117.11,364.11c3.01,3.27,5.05,7.32,5.88,11.69,4.71,25.15,28.24,42.24,53.61,38.95,6.3-.72,12.64,1,17.71,4.82,15.63,11.36,37.51,7.9,48.87-7.72,4.35-5.99,6.7-13.2,6.69-20.6l35.16-48.12-35.02-85.76-112.53,54.43c-21.07,9.99-30.52,37.36-20.36,52.34Z"/><path class="cls-4" d="m170.61,291.94c-14.23,19.62-9.86,47.05,9.76,61.27,19.62,14.23,47.05,9.86,61.27-9.76,5.44-7.5,8.37-16.54,8.36-25.81l14.16-19.72-14.16-40.58-57.36,18.63c-8.85,2.86-16.56,8.45-22.03,15.97Z"/><path class="cls-6" d="m305.56,419.56c1.52-1.13,3.16-2.08,4.89-2.83l-42.49-112.11-17.95,13.03v73.65c-.02,19.32,15.63,35,34.95,35.02,7.4,0,14.62-2.34,20.6-6.69v-.07Z"/><path class="cls-3" d="m310.44,416.73c4.06-1.84,8.54-2.52,12.96-1.98,25.37,3.29,48.9-13.8,53.61-38.95,1.24-6.27,4.86-11.81,10.09-15.47,15.65-11.34,19.14-33.21,7.81-48.86-4.33-5.97-10.43-10.43-17.44-12.72l-35.09-48.19-92.38,6.8,17,123.94c3.01,23.02,26.17,40.51,43.45,35.45Z"/><path class="cls-4" d="m258.39,343.53c14.26,19.59,41.7,23.91,61.29,9.65,19.59-14.26,23.91-41.7,9.65-61.29-5.46-7.5-13.15-13.07-21.97-15.93l-14.34-19.72-43.02,1.1v60.2c-.04,9.3,2.9,18.38,8.39,25.88v.11Z"/><path class="cls-6" d="m421.46,254.62c-.59-1.79-1-3.65-1.2-5.52l-119.76,5.81,6.87,21.25,70.11,22.59c18.42,5.88,38.13-4.28,44.01-22.71,2.22-6.97,2.21-14.45-.03-21.41Z"/><path class="cls-3" d="m420.25,249.1c-.49-4.42.24-8.89,2.12-12.92,10.98-23.11,2-50.78-20.47-63.03-5.57-3.13-9.72-8.27-11.61-14.38-5.97-18.38-25.7-28.44-44.08-22.47-7.01,2.28-13.12,6.71-17.46,12.66l-78.75,108.39,123.05,22.1c22.91,4.28,46.67-12.36,47.2-30.35Z"/><path class="cls-4" d="m334.56,276.01c23.03-7.53,35.6-32.3,28.07-55.33-7.53-23.03-32.3-35.6-55.33-28.07-8.8,2.87-16.46,8.46-21.89,15.95l-35.41,48.8,57.36,18.63c8.83,2.9,18.36,2.91,27.19.04Z"/><path class="cls-5" d="m298.12,241.7c4.99-7.81,2.71-18.19-5.1-23.18-3.94-2.52-8.75-3.28-13.28-2.1-.53-9.25-8.47-16.32-17.72-15.79-4.69.27-9.05,2.49-12.02,6.12-5.87-7.17-16.45-8.23-23.62-2.36-3.63,2.97-5.86,7.34-6.12,12.02-8.97-2.34-18.14,3.03-20.48,12-1.18,4.53-.42,9.34,2.1,13.28-8.63,3.37-12.9,13.11-9.53,21.74,1.71,4.37,5.16,7.82,9.53,9.53-4.99,7.84-2.67,18.23,5.16,23.22,3.92,2.5,8.71,3.26,13.21,2.1.58,9.27,8.57,16.31,17.84,15.73,4.63-.29,8.94-2.49,11.9-6.06,5.92,7.16,16.53,8.16,23.68,2.23,3.58-2.96,5.77-7.27,6.06-11.9,9,2.31,18.16-3.11,20.48-12.1,1.16-4.51.4-9.29-2.1-13.21,8.63-3.37,12.9-13.11,9.53-21.74-1.71-4.37-5.16-7.82-9.53-9.53Z"/><circle class="cls-2" cx="250" cy="256.6" r="32.05"/><circle class="cls-1" cx="250" cy="256.6" r="10.69"/></svg>
