<svg xmlns="http://www.w3.org/2000/svg" viewBox="0 0 500 500">
	<rect x="52.59" y="52.53" width="44.44" height="44.44" fill="#00a19a" opacity=".4"/>
	<rect x="102.59" y="52.53" width="44.44" height="44.44" fill="#00a19a" opacity=".4"/>
	<rect x="152.56" y="52.53" width="44.44" height="44.44" fill="#00a19a" opacity=".2"/>
	<rect x="202.56" y="52.53" width="44.44" height="44.44" fill="#00a19a" opacity=".4"/>
	<rect x="252.56" y="52.53" width="44.44" height="44.44" fill="#00a19a" opacity=".6"/>
	<rect x="302.56" y="52.53" width="44.44" height="44.44" fill="#00a19a"/>
	<rect x="352.56" y="52.53" width="44.44" height="44.44" fill="#00a19a" opacity=".2"/>
	<rect x="402.56" y="52.53" width="44.44" height="44.44" fill="#00a19a" opacity=".5"/>
	<rect x="52.79" y="102.31" width="44.44" height="44.44" fill="#00a19a" opacity=".5"/>
	<rect x="102.79" y="102.31" width="44.44" height="44.44" fill="#00a19a" opacity=".7"/>
	<rect x="152.76" y="102.31" width="44.44" height="44.44" fill="#00a19a" opacity=".4"/>
	<rect x="202.76" y="102.31" width="44.44" height="44.44" fill="#00a19a" opacity=".5"/>
	<rect x="252.76" y="102.31" width="44.44" height="44.44" fill="#00a19a" opacity=".8"/>
	<rect x="352.76" y="102.31" width="44.44" height="44.44" fill="#00a19a" opacity=".4"/>
	<rect x="402.76" y="102.31" width="44.44" height="44.44" fill="#00a19a"/>
	<rect x="52.79" y="152.09" width="44.44" height="44.44" fill="#00a19a" opacity=".6"/>
	<rect x="102.79" y="152.09" width="44.44" height="44.44" fill="#00a19a"/>
	<rect x="152.76" y="152.09" width="44.44" height="44.44" fill="#00a19a" opacity=".6"/>
	<rect x="202.76" y="152.09" width="44.44" height="44.44" fill="#00a19a" opacity=".6"/>
	<rect x="252.76" y="152.09" width="44.44" height="44.44" fill="#00a19a"/>
	<rect x="352.76" y="152.09" width="44.44" height="44.44" fill="#00a19a" opacity=".6"/>
	<rect x="52.79" y="201.87" width="44.44" height="44.44" fill="#00a19a" opacity=".7"/>
	<rect x="152.76" y="201.87" width="44.44" height="44.44" fill="#00a19a" opacity=".8"/>
	<rect x="202.76" y="201.87" width="44.44" height="44.44" fill="#00a19a" opacity=".7"/>
	<rect x="352.76" y="201.87" width="44.44" height="44.44" fill="#00a19a" opacity=".8"/>
	<rect x="52.79" y="251.64" width="44.44" height="44.44" fill="#00a19a" opacity=".8"/>
	<rect x="152.76" y="251.64" width="44.44" height="44.44" fill="#00a19a"/>
	<rect x="202.76" y="251.64" width="44.44" height="44.44" fill="#00a19a" opacity=".8"/>
	<rect x="352.76" y="251.64" width="44.44" height="44.44" fill="#00a19a"/>
	<rect x="52.79" y="301.42" width="44.44" height="44.44" fill="#00a19a" opacity=".9"/>
	<rect x="202.76" y="301.42" width="44.44" height="44.44" fill="#00a19a" opacity=".9"/>
	<rect x="52.79" y="351.2" width="44.44" height="44.44" fill="#00a19a"/>
	<rect x="202.76" y="351.2" width="44.44" height="44.44" fill="#00a19a"/>
</svg>
