<svg xmlns="http://www.w3.org/2000/svg" viewBox="0 0 50 50">
	<path d="M35.3,0v2H48v12.8h2V0H35.3z M48,48H35.3v2H50V35.3h-2V48z M2,35.3H0V50h14.7v-2H2V35.3z M2,2h12.8V0H0v14.7h2V2z M9.4,41 h12.5V39H11.5v-14h8.3v-2.1h-8.3V11.1h10.4V9H9.4V41z M41.5,41.1l-7.1-16h0.2c0.7,0,1.4-0.2,2-0.4c0.7-0.3,1.3-0.6,1.8-1.1 c0.5-0.5,1-1.1,1.3-1.8c0.3-0.7,0.5-1.5,0.5-2.3v-5.3c0-0.7-0.1-1.5-0.5-2.2c-0.3-0.6-0.7-1.2-1.2-1.6c-0.5-0.4-1.1-0.8-1.7-1 C36.1,9.1,35.5,9,34.9,9l-4.3,0h-1.9h-1.1v32.1h2.1v-16h2.4l7,16H41.5z M36.8,22.1c-0.4,0.3-0.7,0.5-1.2,0.6 c-0.4,0.1-0.8,0.2-1.1,0.2h-4.8V11.1H32c0.9,0,1.9,0,2.9,0c0.8,0,1.6,0.3,2.2,0.8c0.7,0.6,1,1.4,1,2.3v5.3c0,0.5-0.1,1.1-0.4,1.6 C37.5,21.5,37.2,21.9,36.8,22.1z" />
</svg>
