<svg viewBox="0 0 100 100" xmlns="http://www.w3.org/2000/svg">
	<path d="M42.14,100h1.19a2.93,2.93,0,0,0,3-2.89V63.42L67.86,96.88a3,3,0,0,0,4.1.91l1-.61a2.86,2.86,0,0,0,.94-4L50.15,56.34a8.52,8.52,0,0,0,1.59-5,8.66,8.66,0,0,0-1.62-5L33.81,50.25a8.32,8.32,0,0,0-.07,1.12,8.61,8.61,0,0,0,1.59,5L11.57,93.21a2.85,2.85,0,0,0,.94,4l1,.61a3,3,0,0,0,4.1-.91L39.17,63.42V97.11A2.93,2.93,0,0,0,42.14,100ZM6.68,48.63c.13,0,13.87-3.26,13.87-3.26A33.61,33.61,0,0,1,16.72,36a33.16,33.16,0,0,1-1-10L2.18,29.15C0,29.67-.65,34.43.7,39.8,2,44.85,4.56,48.63,6.68,48.63Zm34-33.11L22.29,19.88a2.94,2.94,0,0,0-1.72,1.31,6.79,6.79,0,0,0-.88,2,10.86,10.86,0,0,0-.37,1.87,27.9,27.9,0,0,0,.85,10.1,28.61,28.61,0,0,0,4,9.33A12.05,12.05,0,0,0,25.44,46a7.18,7.18,0,0,0,1.72,1.38,3.33,3.33,0,0,0,1.58.45,2.1,2.1,0,0,0,.56-.07l17.53-4.17.92-.22a38.69,38.69,0,0,1-6-13.45,38.65,38.65,0,0,1-1.11-14.18C40.63,15.66,40.64,15.59,40.66,15.52ZM99.91,31.67,92.5,2.21A3,3,0,0,0,89.61,0a2.92,2.92,0,0,0-.71.08l-41,9.78a3,3,0,0,0-1.33.69,5.65,5.65,0,0,0-1.48,2.14,10.68,10.68,0,0,0-.61,1.93c-.85,3.6-.66,8.85.76,14.46s3.84,10.57,6.36,13.36a11.11,11.11,0,0,0,1.54,1.42,2.75,2.75,0,0,0,.44.28,5.22,5.22,0,0,0,3.78.49l40.41-9.48A2.86,2.86,0,0,0,99.91,31.67Z" />
</svg>